# WaveFront *.obj file (generated by Autodesk ATF)

mtllib gbr_physical_mesh_simple.mtl

g Body1

v 0.000000 0.000000 0.125000
v 0.000000 -0.440000 0.125000
v 0.000000 -0.440000 0.375000
v 0.000000 0.000000 0.375000
v 0.440000 0.000000 0.125000
v 0.440000 0.000000 0.375000
v 0.440000 -0.440000 0.125000
v 0.440000 -0.440000 0.375000
v 0.020000 -0.420000 0.140400
v 0.420000 -0.420000 0.140400
v 0.420000 -0.020000 0.140400
v 0.020000 -0.020000 0.140400
v 0.020000 -0.420000 0.359600
v 0.020000 -0.020000 0.359600
v 0.420000 -0.020000 0.359600
v 0.420000 -0.420000 0.359600
vt -0.000000 0.000000 0.000000
vt 44.000000 0.000000 0.000000
vt -0.000000 25.000000 0.000000
vt 44.000000 25.000000 0.000000
vt -0.000000 0.000000 0.000000
vt 44.000000 0.000000 0.000000
vt -0.000000 25.000000 0.000000
vt 44.000000 25.000000 0.000000
vt 0.000000 0.000000 0.000000
vt 44.000000 0.000000 0.000000
vt 0.000000 25.000000 0.000000
vt 44.000000 25.000000 0.000000
vt 0.000000 0.000000 0.000000
vt 44.000000 0.000000 0.000000
vt 0.000000 25.000000 0.000000
vt 44.000000 25.000000 0.000000
vt -22.000000 -22.000000 0.000000
vt 22.000000 -22.000000 0.000000
vt -22.000000 22.000000 0.000000
vt 22.000000 22.000000 0.000000
vt -22.000000 -22.000000 0.000000
vt 22.000000 -22.000000 0.000000
vt -22.000000 22.000000 0.000000
vt 22.000000 22.000000 0.000000
vt -20.000000 -20.000000 0.000000
vt 20.000000 -20.000000 0.000000
vt -20.000000 20.000000 0.000000
vt 20.000000 20.000000 0.000000
vt -40.000000 -10.960000 0.000000
vt -0.000000 -10.960000 0.000000
vt -40.000000 10.960000 0.000000
vt 0.000000 10.960000 0.000000
vt -40.000000 -10.960000 0.000000
vt -0.000000 -10.960000 0.000000
vt -40.000000 10.960000 0.000000
vt 0.000000 10.960000 0.000000
vt -40.000000 -10.960000 0.000000
vt -0.000000 -10.960000 0.000000
vt -40.000000 10.960000 0.000000
vt -0.000000 10.960000 0.000000
vt -40.000000 -10.960000 0.000000
vt -0.000000 -10.960000 0.000000
vt -40.000000 10.960000 0.000000
vt -0.000000 10.960000 0.000000
vt -20.000000 -20.000000 0.000000
vt 20.000000 -20.000000 0.000000
vt -20.000000 20.000000 0.000000
vt 20.000000 20.000000 0.000000
vn -100.000000 0.000000 0.000000
vn -100.000000 0.000000 0.000000
vn -100.000000 0.000000 0.000000
vn -100.000000 0.000000 0.000000
vn 0.000000 100.000000 0.000000
vn 0.000000 100.000000 0.000000
vn 0.000000 100.000000 0.000000
vn 0.000000 100.000000 0.000000
vn 100.000000 0.000000 0.000000
vn 100.000000 0.000000 0.000000
vn 100.000000 0.000000 0.000000
vn 100.000000 0.000000 0.000000
vn 0.000000 -100.000000 0.000000
vn 0.000000 -100.000000 0.000000
vn 0.000000 -100.000000 0.000000
vn 0.000000 -100.000000 0.000000
vn 0.000000 0.000000 100.000000
vn 0.000000 0.000000 100.000000
vn 0.000000 0.000000 100.000000
vn 0.000000 0.000000 100.000000
vn 0.000000 0.000000 -100.000000
vn 0.000000 0.000000 -100.000000
vn 0.000000 0.000000 -100.000000
vn 0.000000 0.000000 -100.000000
vn 0.000000 0.000000 100.000000
vn 0.000000 0.000000 100.000000
vn 0.000000 0.000000 100.000000
vn 0.000000 0.000000 100.000000
vn 100.000000 0.000000 0.000000
vn 100.000000 0.000000 0.000000
vn 100.000000 0.000000 0.000000
vn 100.000000 0.000000 0.000000
vn 0.000000 -100.000000 0.000000
vn 0.000000 -100.000000 0.000000
vn 0.000000 -100.000000 0.000000
vn 0.000000 -100.000000 0.000000
vn -100.000000 -0.000000 0.000000
vn -100.000000 -0.000000 0.000000
vn -100.000000 -0.000000 0.000000
vn -100.000000 -0.000000 0.000000
vn -0.000000 100.000000 -0.000000
vn -0.000000 100.000000 -0.000000
vn -0.000000 100.000000 -0.000000
vn -0.000000 100.000000 -0.000000
vn 0.000000 0.000000 -100.000000
vn 0.000000 0.000000 -100.000000
vn 0.000000 0.000000 -100.000000
vn 0.000000 0.000000 -100.000000
usemtl Steel_-_Satin
f 1/1/1 2/2/2 4/3/3
f 4/3/3 2/2/2 3/4/4
f 5/5/5 1/6/6 6/7/7
f 6/7/7 1/6/6 4/8/8
f 7/9/9 5/10/10 8/11/11
f 8/11/11 5/10/10 6/12/12
f 2/13/13 7/14/14 3/15/15
f 3/15/15 7/14/14 8/16/16
f 3/17/17 8/18/18 4/19/19
f 4/19/19 8/18/18 6/20/20
f 7/21/21 2/22/22 5/23/23
f 5/23/23 2/22/22 1/24/24
f 9/25/25 10/26/26 12/27/27
f 12/27/27 10/26/26 11/28/28
f 9/29/29 12/30/30 13/31/31
f 13/31/31 12/30/30 14/32/32
f 12/33/33 11/34/34 14/35/35
f 14/35/35 11/34/34 15/36/36
f 11/37/37 10/38/38 15/39/39
f 15/39/39 10/38/38 16/40/40
f 10/41/41 9/42/42 16/43/43
f 16/43/43 9/42/42 13/44/44
f 16/45/45 13/46/46 15/47/47
f 15/47/47 13/46/46 14/48/48
# 16 vertices
# 48 texture params
# 48 normals
# 24 facets

# 1 groups
